<svg width="200" height="200" viewBox="0 0 200 200" fill="none" xmlns="http://www.w3.org/2000/svg">
<rect width="200" height="200" fill="#1414FF"/>
<path d="M141.396 91.1136H134.319V92.0531C135.813 92.2097 141.002 92.2097 139.902 94.95L117.651 149.052C112.462 160.953 106.644 177.004 98.231 177.004C94.0639 177.004 90.8403 171.758 94.3784 161.971C97.8378 149.052 116.865 143.963 119.774 135.037C121.346 129.948 119.617 122.119 115.057 114.759C110.968 108.26 107.115 101.605 103.263 95.0283C101.533 92.2097 107.509 92.2097 108.924 92.0531V91.1136H92.3342C91.8624 90.8004 91.4693 90.4089 91.2334 89.7825C90.683 88.2949 91.312 86.4941 90.8403 84.9282C90.2899 83.1274 88.9533 81.4832 87.5381 80.1522C86.5946 79.2127 85.5725 78.3514 84.7862 77.3336C83.2138 75.2196 82.5061 72.5576 82.5848 69.8955C82.6634 67.2335 83.2924 64.6497 84.0786 62.1443C84.7862 59.952 85.5725 57.838 86.6732 55.8807C87.774 53.9233 89.1892 52.0442 90.0541 49.9302C92.0983 45.0759 91.2334 39.2038 91.2334 34.1146C91.2334 31.061 91.2334 28.0858 91.2334 25.0323C91.2334 22.5268 95.5577 22.0571 97.8378 22.0571H106.88C114.113 22.0571 116.865 27.7726 119.617 34.1929H120.953L117.651 24.7974C116.708 22.0571 115.764 20.9609 112.462 20.9609H60.4914C57.1892 20.9609 56.1671 22.0571 55.3022 24.7974L52 34.1146H53.3366C56.0885 27.8509 58.683 22.0571 66.0737 22.0571H75.1155C77.3956 22.0571 81.7199 22.5268 81.7199 25.0323C81.7199 28.2424 81.7199 31.5308 81.7199 34.7409C81.7199 41.4743 82.6634 46.955 79.2826 53.062C77.6314 56.1155 75.6658 59.0125 74.4865 62.2226C72.285 68.3296 73.3071 75.5328 77.1597 80.7786C78.6536 82.8143 82.742 86.3375 82.1916 89.1562C81.6413 92.0531 76.9238 92.0531 74.6437 92.3663V93.4624H91.6265C92.2555 93.9322 92.8845 94.4803 93.3563 95.2632C97.4447 101.449 99.8821 105.285 103.892 111.784C109.16 120.161 117.494 127.756 118.28 132.923C120.167 143.806 91.3907 143.258 85.258 160.17C80.6192 173.089 90.8403 178.569 98.231 178.569C107.666 178.569 112.541 164.711 119.066 148.974L141.317 94.8717C142.339 92.2097 145.563 92.2097 148 91.9748V91.0353H141.396V91.1136Z" fill="white"/>
<path d="M109.553 47.8945C115.057 47.8945 122.683 51.4961 122.683 57.838C122.683 60.1869 121.032 62.6923 114.821 62.6923H112.147C102.162 62.6923 99.9607 70.0521 99.7248 74.9847C99.7248 74.9847 103.342 82.5011 110.418 83.284C118.201 84.067 123.548 78.7429 126.693 72.401L127.4 72.6359C124.413 79.7607 118.359 86.1027 109.238 86.1027C99.3317 86.1027 91.5479 75.846 91.5479 66.6854C91.5479 56.8985 99.2531 47.8945 109.553 47.8945ZM97.8378 64.728C97.8378 67.8598 98.231 70.5219 99.0958 73.2622C99.6462 67.9381 102.87 61.283 113.091 61.283C114.742 61.283 117.022 61.283 117.022 59.3257C117.022 54.2365 113.641 48.7558 107.98 48.7558C99.8034 48.7558 97.8378 58.4644 97.8378 64.728Z" fill="white"/>
<path d="M103.892 128.147C101.926 125.485 99.8821 122.823 98.3882 119.848C97.1302 117.264 97.1302 114.602 95.9509 111.94C93.9066 107.243 89.9754 103.484 84.5504 103.484C76.6093 103.484 72.4423 113.584 71.027 122.902V104.032H58.2899V104.737C60.0196 104.894 62.8501 105.129 62.8501 106.929V132.923C62.8501 134.333 62.8501 135.664 62.8501 137.073C62.8501 141.379 62.8501 145.764 63.4791 149.992C63.9509 153.045 64.6585 156.099 64.5798 159.231C64.4226 162.284 63.4005 165.103 63.1646 168.156C62.9287 170.349 62.9287 172.619 62.9287 174.89C62.9287 177.473 60.0983 177.865 58.3685 178.022V179.039H75.6658V178.022C74.172 177.787 71.1056 177.395 71.1056 174.89C71.1056 171.523 71.1056 169.096 71.8919 165.807C72.6781 162.832 73.6216 159.779 73.6216 156.49C73.6216 151.323 71.027 146.86 71.027 141.693C71.027 140.205 71.027 138.639 71.027 137.151C71.027 135.899 71.027 134.568 71.027 133.315V133.002C72.1278 135.116 75.7445 143.102 85.8083 143.102C88.7174 143.102 90.683 141.536 93.1204 140.205C95.8722 138.717 98.6241 137.308 101.376 135.82C102.319 135.351 103.263 134.803 103.971 134.098C104.678 133.393 105.307 132.375 105.228 131.358C105.228 130.261 104.521 129.244 103.813 128.382L103.892 128.147ZM92.6486 134.02C89.9754 136.447 86.5946 139.813 82.6634 139.813C76.3735 139.813 73.4644 135.742 70.9484 131.279V129.713C70.9484 121.101 75.8231 107.164 82.113 107.164C85.8083 107.164 88.4029 109.435 89.7395 112.723C90.6044 114.681 90.7617 116.795 91.4693 118.752C92.4128 121.336 93.4349 123.919 94.5356 126.425C95.0074 127.443 95.4791 128.539 95.4791 129.635C95.4005 131.436 93.9852 132.845 92.6486 134.02Z" fill="white"/>
</svg>
